<mxfile>
    <diagram id="z3OYRRTMQv-W0OHVDiBU" name="Page-1">
        <mxGraphModel dx="1992" dy="2163" grid="1" gridSize="10" guides="1" tooltips="1" connect="1" arrows="1" fold="1" page="1" pageScale="1" pageWidth="1200" pageHeight="1600" math="0" shadow="0">
            <root>
                <mxCell id="0"/>
                <mxCell id="1" parent="0"/>
                <mxCell id="2" value="" style="rounded=1;whiteSpace=wrap;html=1;" parent="1" vertex="1">
                    <mxGeometry x="140" y="60" width="250" height="410" as="geometry"/>
                </mxCell>
                <mxCell id="3" value="" style="rounded=1;whiteSpace=wrap;html=1;" parent="1" vertex="1">
                    <mxGeometry x="205" y="350" width="120" height="30" as="geometry"/>
                </mxCell>
                <mxCell id="5" value="" style="rounded=0;whiteSpace=wrap;html=1;" parent="1" vertex="1">
                    <mxGeometry x="205" y="210" width="120" height="20" as="geometry"/>
                </mxCell>
                <mxCell id="10" value="Nombre" style="text;html=1;strokeColor=none;fillColor=none;align=center;verticalAlign=middle;whiteSpace=wrap;rounded=0;" parent="1" vertex="1">
                    <mxGeometry x="245" y="210" width="40" height="20" as="geometry"/>
                </mxCell>
                <mxCell id="13" value="" style="rounded=0;whiteSpace=wrap;html=1;" parent="1" vertex="1">
                    <mxGeometry x="205" y="240" width="120" height="20" as="geometry"/>
                </mxCell>
                <mxCell id="17" value="" style="rounded=0;whiteSpace=wrap;html=1;" parent="1" vertex="1">
                    <mxGeometry x="205" y="270" width="120" height="20" as="geometry"/>
                </mxCell>
                <mxCell id="18" value="" style="rounded=0;whiteSpace=wrap;html=1;" parent="1" vertex="1">
                    <mxGeometry x="205" y="300" width="120" height="20" as="geometry"/>
                </mxCell>
                <mxCell id="19" value="email" style="text;html=1;strokeColor=none;fillColor=none;align=center;verticalAlign=middle;whiteSpace=wrap;rounded=0;" parent="1" vertex="1">
                    <mxGeometry x="245" y="240" width="40" height="20" as="geometry"/>
                </mxCell>
                <mxCell id="20" value="password" style="text;html=1;strokeColor=none;fillColor=none;align=center;verticalAlign=middle;whiteSpace=wrap;rounded=0;" parent="1" vertex="1">
                    <mxGeometry x="245" y="270" width="40" height="20" as="geometry"/>
                </mxCell>
                <mxCell id="26" style="edgeStyle=orthogonalEdgeStyle;rounded=0;orthogonalLoop=1;jettySize=auto;html=1;" parent="1" source="21" edge="1">
                    <mxGeometry relative="1" as="geometry">
                        <mxPoint x="420" y="320" as="targetPoint"/>
                    </mxGeometry>
                </mxCell>
                <mxCell id="21" value="Veterinario ?" style="text;html=1;strokeColor=none;fillColor=none;align=center;verticalAlign=middle;whiteSpace=wrap;rounded=0;" parent="1" vertex="1">
                    <mxGeometry x="218.75" y="300" width="92.5" height="20" as="geometry"/>
                </mxCell>
                <mxCell id="28" value="" style="rounded=1;whiteSpace=wrap;html=1;" parent="1" vertex="1">
                    <mxGeometry x="425" y="300" width="120" height="60" as="geometry"/>
                </mxCell>
                <mxCell id="29" value="Dropdown con respuesta de si o no" style="text;html=1;strokeColor=none;fillColor=none;align=center;verticalAlign=middle;whiteSpace=wrap;rounded=0;" parent="1" vertex="1">
                    <mxGeometry x="442.5" y="320" width="85" height="20" as="geometry"/>
                </mxCell>
                <mxCell id="30" value="REGISTRARME" style="text;html=1;strokeColor=none;fillColor=none;align=center;verticalAlign=middle;whiteSpace=wrap;rounded=0;" parent="1" vertex="1">
                    <mxGeometry x="240" y="355" width="60" height="20" as="geometry"/>
                </mxCell>
                <mxCell id="31" value="Log in instead" style="text;html=1;strokeColor=none;fillColor=none;align=center;verticalAlign=middle;whiteSpace=wrap;rounded=0;" parent="1" vertex="1">
                    <mxGeometry x="226.25" y="400" width="85" height="20" as="geometry"/>
                </mxCell>
                <mxCell id="257" value="" style="endArrow=classic;html=1;" parent="1" edge="1">
                    <mxGeometry relative="1" as="geometry">
                        <mxPoint x="390" y="260" as="sourcePoint"/>
                        <mxPoint x="660" y="260" as="targetPoint"/>
                    </mxGeometry>
                </mxCell>
                <mxCell id="258" value="REGISTRATION SUCCESFUL" style="edgeLabel;resizable=0;html=1;align=center;verticalAlign=middle;" parent="257" connectable="0" vertex="1">
                    <mxGeometry relative="1" as="geometry"/>
                </mxCell>
                <mxCell id="260" value="" style="group" parent="1" vertex="1" connectable="0">
                    <mxGeometry x="-80" y="10" width="190" height="130" as="geometry"/>
                </mxCell>
                <mxCell id="33" value="" style="rounded=0;whiteSpace=wrap;html=1;" parent="260" vertex="1">
                    <mxGeometry width="185.25" height="115" as="geometry"/>
                </mxCell>
                <mxCell id="32" value="&lt;h1&gt;Sign Up Page&lt;/h1&gt;&lt;p&gt;First step in the process, register an account or login to a previously created account.&lt;/p&gt;" style="text;html=1;strokeColor=none;fillColor=none;spacing=5;spacingTop=-20;whiteSpace=wrap;overflow=hidden;rounded=0;" parent="260" vertex="1">
                    <mxGeometry x="9.5" y="10" width="180.5" height="120" as="geometry"/>
                </mxCell>
                <mxCell id="261" value="" style="endArrow=classic;html=1;" parent="1" edge="1">
                    <mxGeometry relative="1" as="geometry">
                        <mxPoint x="264.5" y="420" as="sourcePoint"/>
                        <mxPoint x="265" y="580" as="targetPoint"/>
                    </mxGeometry>
                </mxCell>
                <mxCell id="262" value="REDIRECT TO LOGIN PAGE" style="edgeLabel;resizable=0;html=1;align=center;verticalAlign=middle;" parent="261" connectable="0" vertex="1">
                    <mxGeometry relative="1" as="geometry"/>
                </mxCell>
                <mxCell id="263" value="" style="rounded=1;whiteSpace=wrap;html=1;" parent="1" vertex="1">
                    <mxGeometry x="140" y="590" width="250" height="410" as="geometry"/>
                </mxCell>
                <mxCell id="266" value="" style="group" parent="1" vertex="1" connectable="0">
                    <mxGeometry x="220" y="80" width="90" height="90" as="geometry"/>
                </mxCell>
                <mxCell id="269" value="" style="group" parent="266" vertex="1" connectable="0">
                    <mxGeometry width="90" height="90" as="geometry"/>
                </mxCell>
                <mxCell id="11" value="" style="whiteSpace=wrap;html=1;aspect=fixed;" parent="269" vertex="1">
                    <mxGeometry width="90" height="90" as="geometry"/>
                </mxCell>
                <mxCell id="12" value="LOGO" style="text;html=1;strokeColor=none;fillColor=none;align=center;verticalAlign=middle;whiteSpace=wrap;rounded=0;" parent="269" vertex="1">
                    <mxGeometry x="25" y="35" width="40" height="20" as="geometry"/>
                </mxCell>
                <mxCell id="271" value="" style="group" parent="1" vertex="1" connectable="0">
                    <mxGeometry x="220" y="610" width="90" height="90" as="geometry"/>
                </mxCell>
                <mxCell id="272" value="" style="group" parent="271" vertex="1" connectable="0">
                    <mxGeometry width="90" height="90" as="geometry"/>
                </mxCell>
                <mxCell id="273" value="" style="whiteSpace=wrap;html=1;aspect=fixed;" parent="272" vertex="1">
                    <mxGeometry width="90" height="90" as="geometry"/>
                </mxCell>
                <mxCell id="274" value="LOGO" style="text;html=1;strokeColor=none;fillColor=none;align=center;verticalAlign=middle;whiteSpace=wrap;rounded=0;" parent="272" vertex="1">
                    <mxGeometry x="25" y="35" width="40" height="20" as="geometry"/>
                </mxCell>
                <mxCell id="277" value="" style="rounded=0;whiteSpace=wrap;html=1;" parent="1" vertex="1">
                    <mxGeometry x="205" y="785" width="120" height="20" as="geometry"/>
                </mxCell>
                <mxCell id="278" value="Password" style="rounded=0;whiteSpace=wrap;html=1;" parent="1" vertex="1">
                    <mxGeometry x="205" y="820" width="120" height="20" as="geometry"/>
                </mxCell>
                <mxCell id="279" value="Email" style="text;html=1;strokeColor=none;fillColor=none;align=center;verticalAlign=middle;whiteSpace=wrap;rounded=0;" parent="1" vertex="1">
                    <mxGeometry x="245" y="785" width="40" height="20" as="geometry"/>
                </mxCell>
                <mxCell id="280" value="LOGIN" style="rounded=1;whiteSpace=wrap;html=1;" parent="1" vertex="1">
                    <mxGeometry x="205" y="880" width="120" height="30" as="geometry"/>
                </mxCell>
                <mxCell id="282" value="" style="endArrow=classic;html=1;" parent="1" edge="1">
                    <mxGeometry relative="1" as="geometry">
                        <mxPoint x="335" y="880" as="sourcePoint"/>
                        <mxPoint x="660" y="295.5" as="targetPoint"/>
                    </mxGeometry>
                </mxCell>
                <mxCell id="283" value="LOGIN SUCCESFUL" style="edgeLabel;resizable=0;html=1;align=center;verticalAlign=middle;" parent="282" connectable="0" vertex="1">
                    <mxGeometry relative="1" as="geometry"/>
                </mxCell>
                <mxCell id="314" style="edgeStyle=orthogonalEdgeStyle;rounded=0;orthogonalLoop=1;jettySize=auto;html=1;entryX=0.832;entryY=-0.002;entryDx=0;entryDy=0;entryPerimeter=0;" parent="1" source="284" target="259" edge="1">
                    <mxGeometry relative="1" as="geometry">
                        <Array as="points">
                            <mxPoint x="930" y="35"/>
                            <mxPoint x="868" y="35"/>
                        </Array>
                    </mxGeometry>
                </mxCell>
                <mxCell id="284" value="&lt;h1&gt;APP HOME CLIENTS&lt;/h1&gt;&lt;p&gt;The app home landing page. This page will have two different looks, depending on whether or not the user has logged in before and added information about their favorite dogs &amp;amp; conducted searches previously.&lt;/p&gt;" style="text;html=1;strokeColor=none;fillColor=none;spacing=5;spacingTop=-20;whiteSpace=wrap;overflow=hidden;rounded=0;" parent="1" vertex="1">
                    <mxGeometry x="820" y="-120" width="260" height="120" as="geometry"/>
                </mxCell>
                <mxCell id="300" value="" style="group" parent="1" vertex="1" connectable="0">
                    <mxGeometry x="660" y="70" width="250" height="410" as="geometry"/>
                </mxCell>
                <mxCell id="259" value="" style="rounded=1;whiteSpace=wrap;html=1;" parent="300" vertex="1">
                    <mxGeometry width="250" height="410" as="geometry"/>
                </mxCell>
                <mxCell id="290" value="" style="rounded=1;whiteSpace=wrap;html=1;arcSize=26;" parent="300" vertex="1">
                    <mxGeometry y="350" width="250" height="60" as="geometry"/>
                </mxCell>
                <mxCell id="291" value="" style="shape=actor;whiteSpace=wrap;html=1;" parent="300" vertex="1">
                    <mxGeometry x="40" y="365" width="30" height="30" as="geometry"/>
                </mxCell>
                <mxCell id="298" value="" style="html=1;verticalLabelPosition=bottom;align=center;labelBackgroundColor=#ffffff;verticalAlign=top;strokeWidth=2;shadow=0;dashed=0;shape=mxgraph.ios7.icons.looking_glass;" parent="300" vertex="1">
                    <mxGeometry x="110" y="365" width="30" height="30" as="geometry"/>
                </mxCell>
                <mxCell id="299" value="" style="html=1;verticalLabelPosition=bottom;align=center;labelBackgroundColor=#ffffff;verticalAlign=top;strokeWidth=2;shadow=0;dashed=0;shape=mxgraph.ios7.icons.calendar;" parent="300" vertex="1">
                    <mxGeometry x="180" y="365" width="30" height="30" as="geometry"/>
                </mxCell>
                <mxCell id="301" value="" style="group" parent="1" vertex="1" connectable="0">
                    <mxGeometry x="950" y="70" width="250" height="410" as="geometry"/>
                </mxCell>
                <mxCell id="302" value="" style="rounded=1;whiteSpace=wrap;html=1;" parent="301" vertex="1">
                    <mxGeometry width="250" height="410" as="geometry"/>
                </mxCell>
                <mxCell id="303" value="" style="rounded=1;whiteSpace=wrap;html=1;arcSize=26;" parent="301" vertex="1">
                    <mxGeometry y="350" width="250" height="60" as="geometry"/>
                </mxCell>
                <mxCell id="304" value="" style="shape=actor;whiteSpace=wrap;html=1;" parent="301" vertex="1">
                    <mxGeometry x="40" y="365" width="30" height="30" as="geometry"/>
                </mxCell>
                <mxCell id="305" value="" style="html=1;verticalLabelPosition=bottom;align=center;labelBackgroundColor=#ffffff;verticalAlign=top;strokeWidth=2;shadow=0;dashed=0;shape=mxgraph.ios7.icons.looking_glass;" parent="301" vertex="1">
                    <mxGeometry x="110" y="365" width="30" height="30" as="geometry"/>
                </mxCell>
                <mxCell id="306" value="" style="html=1;verticalLabelPosition=bottom;align=center;labelBackgroundColor=#ffffff;verticalAlign=top;strokeWidth=2;shadow=0;dashed=0;shape=mxgraph.ios7.icons.calendar;" parent="301" vertex="1">
                    <mxGeometry x="180" y="365" width="30" height="30" as="geometry"/>
                </mxCell>
                <mxCell id="307" value="" style="rounded=1;whiteSpace=wrap;html=1;" parent="1" vertex="1">
                    <mxGeometry x="-420" y="390" width="250" height="410" as="geometry"/>
                </mxCell>
                <mxCell id="308" value="" style="group" parent="1" vertex="1" connectable="0">
                    <mxGeometry x="1240" y="70" width="250" height="410" as="geometry"/>
                </mxCell>
                <mxCell id="309" value="" style="rounded=1;whiteSpace=wrap;html=1;" parent="308" vertex="1">
                    <mxGeometry width="250" height="410" as="geometry"/>
                </mxCell>
                <mxCell id="310" value="" style="rounded=1;whiteSpace=wrap;html=1;arcSize=26;" parent="308" vertex="1">
                    <mxGeometry y="350" width="250" height="60" as="geometry"/>
                </mxCell>
                <mxCell id="311" value="" style="shape=actor;whiteSpace=wrap;html=1;" parent="308" vertex="1">
                    <mxGeometry x="40" y="365" width="30" height="30" as="geometry"/>
                </mxCell>
                <mxCell id="312" value="" style="html=1;verticalLabelPosition=bottom;align=center;labelBackgroundColor=#ffffff;verticalAlign=top;strokeWidth=2;shadow=0;dashed=0;shape=mxgraph.ios7.icons.looking_glass;" parent="308" vertex="1">
                    <mxGeometry x="110" y="365" width="30" height="30" as="geometry"/>
                </mxCell>
                <mxCell id="313" value="" style="html=1;verticalLabelPosition=bottom;align=center;labelBackgroundColor=#ffffff;verticalAlign=top;strokeWidth=2;shadow=0;dashed=0;shape=mxgraph.ios7.icons.calendar;" parent="308" vertex="1">
                    <mxGeometry x="180" y="365" width="30" height="30" as="geometry"/>
                </mxCell>
                <mxCell id="317" value="" style="rounded=1;whiteSpace=wrap;html=1;" parent="308" vertex="1">
                    <mxGeometry x="30" y="50" width="70" height="30" as="geometry"/>
                </mxCell>
                <mxCell id="318" value="" style="rounded=1;whiteSpace=wrap;html=1;" parent="308" vertex="1">
                    <mxGeometry x="140" y="50" width="70" height="30" as="geometry"/>
                </mxCell>
                <mxCell id="319" value="" style="rounded=1;whiteSpace=wrap;html=1;" parent="308" vertex="1">
                    <mxGeometry x="30" y="90" width="70" height="30" as="geometry"/>
                </mxCell>
                <mxCell id="320" value="" style="rounded=1;whiteSpace=wrap;html=1;" parent="308" vertex="1">
                    <mxGeometry x="140" y="90" width="70" height="30" as="geometry"/>
                </mxCell>
                <mxCell id="321" value="" style="rounded=1;whiteSpace=wrap;html=1;" parent="308" vertex="1">
                    <mxGeometry x="30" y="170" width="70" height="30" as="geometry"/>
                </mxCell>
                <mxCell id="322" value="" style="rounded=1;whiteSpace=wrap;html=1;" parent="308" vertex="1">
                    <mxGeometry x="140" y="170" width="70" height="30" as="geometry"/>
                </mxCell>
                <mxCell id="324" value="" style="rounded=1;whiteSpace=wrap;html=1;" parent="308" vertex="1">
                    <mxGeometry x="30" y="210" width="70" height="30" as="geometry"/>
                </mxCell>
                <mxCell id="323" value="" style="rounded=1;whiteSpace=wrap;html=1;" parent="308" vertex="1">
                    <mxGeometry x="140" y="210" width="70" height="30" as="geometry"/>
                </mxCell>
                <mxCell id="316" style="edgeStyle=orthogonalEdgeStyle;rounded=0;orthogonalLoop=1;jettySize=auto;html=1;entryX=0.5;entryY=0;entryDx=0;entryDy=0;" parent="1" source="315" target="309" edge="1">
                    <mxGeometry relative="1" as="geometry"/>
                </mxCell>
                <mxCell id="315" value="&lt;h1&gt;APP HOME VETERINARIO&lt;/h1&gt;&lt;p&gt;The app home landing page. This page will have two different looks, depending on whether or not the user has logged in before and added information about their favorite dogs &amp;amp; conducted searches previously.&lt;/p&gt;" style="text;html=1;strokeColor=none;fillColor=none;spacing=5;spacingTop=-20;whiteSpace=wrap;overflow=hidden;rounded=0;" parent="1" vertex="1">
                    <mxGeometry x="1230" y="-110" width="330" height="120" as="geometry"/>
                </mxCell>
                <mxCell id="325" style="edgeStyle=orthogonalEdgeStyle;rounded=0;orthogonalLoop=1;jettySize=auto;html=1;exitX=0.45;exitY=1;exitDx=0;exitDy=0;exitPerimeter=0;" parent="1" source="284" target="302" edge="1">
                    <mxGeometry relative="1" as="geometry">
                        <mxPoint x="940" y="10" as="sourcePoint"/>
                        <mxPoint x="878" y="79.17999999999984" as="targetPoint"/>
                        <Array as="points">
                            <mxPoint x="940"/>
                            <mxPoint x="940" y="40"/>
                            <mxPoint x="1050" y="40"/>
                        </Array>
                    </mxGeometry>
                </mxCell>
                <mxCell id="326" value="" style="group" vertex="1" connectable="0" parent="1">
                    <mxGeometry x="-390" y="240" width="190" height="130" as="geometry"/>
                </mxCell>
                <mxCell id="327" value="" style="rounded=0;whiteSpace=wrap;html=1;" vertex="1" parent="326">
                    <mxGeometry width="185.25" height="115" as="geometry"/>
                </mxCell>
                <mxCell id="328" value="&lt;h1&gt;Landing Page&lt;/h1&gt;&lt;p&gt;The page the app opens to when you open the app for the first time.&lt;/p&gt;" style="text;html=1;strokeColor=none;fillColor=none;spacing=5;spacingTop=-20;whiteSpace=wrap;overflow=hidden;rounded=0;" vertex="1" parent="326">
                    <mxGeometry x="9.5" y="10" width="180.5" height="120" as="geometry"/>
                </mxCell>
                <mxCell id="337" style="edgeStyle=orthogonalEdgeStyle;rounded=0;orthogonalLoop=1;jettySize=auto;html=1;" edge="1" parent="1" source="329">
                    <mxGeometry relative="1" as="geometry">
                        <mxPoint x="130" y="270" as="targetPoint"/>
                        <Array as="points">
                            <mxPoint x="-335" y="510"/>
                            <mxPoint x="10" y="510"/>
                            <mxPoint x="10" y="270"/>
                        </Array>
                    </mxGeometry>
                </mxCell>
                <mxCell id="329" value="Sign Up" style="rounded=1;whiteSpace=wrap;html=1;" vertex="1" parent="1">
                    <mxGeometry x="-360" y="520" width="50" height="20" as="geometry"/>
                </mxCell>
                <mxCell id="338" style="edgeStyle=orthogonalEdgeStyle;rounded=0;orthogonalLoop=1;jettySize=auto;html=1;" edge="1" parent="1" source="330">
                    <mxGeometry relative="1" as="geometry">
                        <mxPoint x="130" y="720" as="targetPoint"/>
                        <Array as="points">
                            <mxPoint x="20" y="530"/>
                            <mxPoint x="20" y="720"/>
                        </Array>
                    </mxGeometry>
                </mxCell>
                <mxCell id="330" value="Sign In" style="rounded=1;whiteSpace=wrap;html=1;" vertex="1" parent="1">
                    <mxGeometry x="-280" y="520" width="50" height="20" as="geometry"/>
                </mxCell>
                <mxCell id="331" value="" style="group" vertex="1" connectable="0" parent="1">
                    <mxGeometry x="-340" y="410" width="90" height="90" as="geometry"/>
                </mxCell>
                <mxCell id="332" value="" style="group" vertex="1" connectable="0" parent="331">
                    <mxGeometry width="90" height="90" as="geometry"/>
                </mxCell>
                <mxCell id="333" value="" style="whiteSpace=wrap;html=1;aspect=fixed;" vertex="1" parent="332">
                    <mxGeometry width="90" height="90" as="geometry"/>
                </mxCell>
                <mxCell id="334" value="LOGO" style="text;html=1;strokeColor=none;fillColor=none;align=center;verticalAlign=middle;whiteSpace=wrap;rounded=0;" vertex="1" parent="332">
                    <mxGeometry x="25" y="35" width="40" height="20" as="geometry"/>
                </mxCell>
                <mxCell id="336" value="Lorem ipsum doaoj Lorem ipsum doaoj Lorem ipsum doaoj Lorem ipsum doaoj Lorem ipsum doaoj Lorem ipsum doaoj Lorem ipsum doaoj Lorem ipsum doaoj Lorem ipsum doaoj Lorem ipsum doaoj Lorem ipsum doaoj Lorem ipsum doaoj Lorem ipsum doaoj Lorem ipsum doaoj Lorem ipsum doaoj&amp;nbsp;" style="text;html=1;strokeColor=none;fillColor=none;align=center;verticalAlign=middle;whiteSpace=wrap;rounded=0;" vertex="1" parent="1">
                    <mxGeometry x="-395" y="570" width="200" height="160" as="geometry"/>
                </mxCell>
            </root>
        </mxGraphModel>
    </diagram>
</mxfile>